name baseline.mot
datacolumns 19
datarows 14
range 2.87332500000000 2.89498700000000
endheader
time	ground_force1_vx	ground_force1_vy	ground_force1_vz	ground_force1_px	ground_force1_py	ground_force1_pz	ground_force2_vx	ground_force2_vy	ground_force2_vz	ground_force2_px	ground_force2_py	ground_force2_pz	ground_torque1_x	ground_torque1_y	ground_torque1_z	ground_torque2_x	ground_torque2_y	ground_torque2_z	
2.87332500000000	-62.04867300000000	792.54599199999996	64.71508700000000	-0.09959800000000	0.00000000000000	0.13448000000000	-2.64170700000000	16.41302100000000	3.19248500000000	0.00000000000000	0.00000000000000	0.00000000000000	0.00000000000000	5.51052800000000	0.00000000000000	0.00000000000000	0.63004300000000	0.00000000000000	
2.87498600000000	-62.54773700000000	791.51712099999997	64.67625500000000	-0.10050500000000	0.00000000000000	0.13448400000000	-3.30162100000000	22.05265600000000	4.14869100000000	0.00000000000000	0.00000000000000	0.00000000000000	0.00000000000000	5.49888800000000	0.00000000000000	0.00000000000000	0.82707500000000	0.00000000000000	
2.87666000000000	-63.04461500000000	790.39776600000005	64.62086900000000	-0.10140000000000	0.00000000000000	0.13448600000000	-3.95818800000000	28.23618700000000	5.15769700000000	0.15696700000000	0.00000000000000	-0.08019400000000	0.00000000000000	5.49044300000000	0.00000000000000	0.00000000000000	1.53002800000000	0.00000000000000	
2.87831900000000	-63.53932100000000	789.18563099999994	64.54836500000000	-0.10228500000000	0.00000000000000	0.13448600000000	-4.58365400000000	34.84464600000000	6.19074600000000	0.16357500000000	0.00000000000000	-0.08061100000000	0.00000000000000	5.48542900000000	0.00000000000000	0.00000000000000	1.90030500000000	0.00000000000000	
2.87998500000000	-64.03186599999999	787.87843199999998	64.45818600000000	-0.10315800000000	0.00000000000000	0.13448400000000	-5.15113700000000	41.75023700000000	7.21852700000000	0.16944900000000	0.00000000000000	-0.08099200000000	0.00000000000000	5.48408000000000	0.00000000000000	0.00000000000000	2.28550500000000	0.00000000000000	
2.88165200000000	-64.52225799999999	786.47389099999998	64.34978800000000	-0.10402100000000	0.00000000000000	0.13448000000000	-5.63652600000000	48.82688400000000	8.21334700000000	0.17471100000000	0.00000000000000	-0.08134300000000	0.00000000000000	5.48662800000000	0.00000000000000	0.00000000000000	2.67631400000000	0.00000000000000	
2.88332400000000	-65.01049900000000	784.96974499999999	64.22264000000000	-0.10487300000000	0.00000000000000	0.13447300000000	-6.02002100000000	55.95971100000000	9.15100400000000	0.17945200000000	0.00000000000000	-0.08167200000000	0.00000000000000	5.49329700000000	0.00000000000000	0.00000000000000	3.06407300000000	0.00000000000000	
2.88498800000000	-65.49658400000000	783.36374499999999	64.07622400000000	-0.10571400000000	0.00000000000000	0.13446400000000	-6.28714700000000	63.05246700000000	10.01214600000000	0.18374900000000	0.00000000000000	-0.08198100000000	0.00000000000000	5.50431000000000	0.00000000000000	0.00000000000000	3.44133100000000	0.00000000000000	
2.88666000000000	-65.98049600000000	781.65365799999995	63.91003800000000	-0.10654500000000	0.00000000000000	0.13445300000000	-6.42920300000000	70.03234999999999	10.78305000000000	0.18766000000000	0.00000000000000	-0.08227400000000	0.00000000000000	5.51988100000000	0.00000000000000	0.00000000000000	3.80223100000000	0.00000000000000	
2.88832100000000	-66.46220900000000	779.83726999999999	63.72359600000000	-0.10736500000000	0.00000000000000	0.13443900000000	-6.44317600000000	76.85214600000000	11.45582300000000	0.19123500000000	0.00000000000000	-0.08255500000000	0.00000000000000	5.54021700000000	0.00000000000000	0.00000000000000	4.14269800000000	0.00000000000000	
2.88999400000000	-66.94168400000000	777.91238899999996	63.51643300000000	-0.10817600000000	0.00000000000000	0.13442300000000	-6.33120800000000	83.48990800000000	12.02808900000000	0.19451400000000	0.00000000000000	-0.08282500000000	0.00000000000000	5.56551800000000	0.00000000000000	0.00000000000000	4.46045700000000	0.00000000000000	
2.89165500000000	-67.41886599999999	775.87684899999999	63.28810500000000	-0.10897700000000	0.00000000000000	0.13440400000000	-6.09973300000000	89.94660900000000	12.50228000000000	0.19753100000000	0.00000000000000	-0.08308500000000	0.00000000000000	5.59597500000000	0.00000000000000	0.00000000000000	4.75488700000000	0.00000000000000	
2.89331900000000	-67.89368200000000	773.72850700000004	63.03818600000000	-0.10976800000000	0.00000000000000	0.13438300000000	-5.75840700000000	96.24230900000001	12.88465900000000	0.20031200000000	0.00000000000000	-0.08333900000000	0.00000000000000	5.63176800000000	0.00000000000000	0.00000000000000	5.02676700000000	0.00000000000000	
2.89498700000000	-68.36604000000000	771.46525099999997	62.76628000000000	-0.11055100000000	0.00000000000000	0.13436000000000	-5.31897100000000	102.41142300000000	13.18419500000000	0.20288300000000	0.00000000000000	-0.08358600000000	0.00000000000000	5.67306700000000	0.00000000000000	0.00000000000000	5.27795000000000	0.00000000000000	
